REM GENRE Metal
REM DATE 2000
REM DISCID 55090619
REM COMMENT "ExactAudioCopy v0.95b4"
PERFORMER "Nasum"
TITLE "Human 2.0"
FILE "01 Nasum - Mass Hypnosis.flac" WAVE
  TRACK 01 AUDIO
    TITLE "Mass Hypnosis"
    PERFORMER "Nasum"
    INDEX 01 00:00:00
FILE "02 Nasum - A Welcome Breeze of Stinking Air.flac" WAVE
  TRACK 02 AUDIO
    TITLE "A Welcome Breeze of Stinking Air"
    PERFORMER "Nasum"
    INDEX 01 00:00:00
FILE "03 Nasum - Fatal Search.flac" WAVE
  TRACK 03 AUDIO
    TITLE "Fatal Search"
    PERFORMER "Nasum"
    INDEX 01 00:00:00
FILE "04 Nasum - Shadows.flac" WAVE
  TRACK 04 AUDIO
    TITLE "Shadows"
    PERFORMER "Nasum"
    INDEX 01 00:00:00
FILE "05 Nasum - Corrosion.flac" WAVE
  TRACK 05 AUDIO
    TITLE "Corrosion"
    PERFORMER "Nasum"
    INDEX 01 00:00:00
FILE "06 Nasum - Multinational Murderers Network.flac" WAVE
  TRACK 06 AUDIO
    TITLE "Multinational Murderers Network"
    PERFORMER "Nasum"
    INDEX 01 00:00:00
FILE "07 Nasum - Parting is Such Sweet Sorrow.flac" WAVE
  TRACK 07 AUDIO
    TITLE "Parting is Such Sweet Sorrow"
    PERFORMER "Nasum"
    INDEX 01 00:00:00
FILE "08 Nasum - The Black Swarm.flac" WAVE
  TRACK 08 AUDIO
    TITLE "The Black Swarm"
    PERFORMER "Nasum"
    INDEX 01 00:00:00
FILE "09 Nasum - Sixteen.flac" WAVE
  TRACK 09 AUDIO
    TITLE "Sixteen"
    PERFORMER "Nasum"
    INDEX 01 00:00:00
FILE "10 Nasum - Alarm.flac" WAVE
  TRACK 10 AUDIO
    TITLE "Alarm"
    PERFORMER "Nasum"
    INDEX 01 00:00:00
FILE "11 Nasum - Detonator.flac" WAVE
  TRACK 11 AUDIO
    TITLE "Detonator"
    PERFORMER "Nasum"
    INDEX 01 00:00:00
FILE "12 Nasum - Gargoyles and Grotesques.flac" WAVE
  TRACK 12 AUDIO
    TITLE "Gargoyles and Grotesques"
    PERFORMER "Nasum"
    INDEX 01 00:00:00
FILE "13 Nasum - När Dagarna.flac" WAVE
  TRACK 13 AUDIO
    TITLE "När Dagarna"
    PERFORMER "Nasum"
    INDEX 01 00:00:00
FILE "14 Nasum - Resistance.flac" WAVE
  TRACK 14 AUDIO
    TITLE "Resistance"
    PERFORMER "Nasum"
    INDEX 01 00:00:00
FILE "15 Nasum - The Idiot Parade.flac" WAVE
  TRACK 15 AUDIO
    TITLE "The Idiot Parade"
    PERFORMER "Nasum"
    INDEX 01 00:00:00
FILE "16 Nasum - Den Svarta Fanan.flac" WAVE
  TRACK 16 AUDIO
    TITLE "Den Svarta Fanan"
    PERFORMER "Nasum"
    INDEX 01 00:00:00
FILE "17 Nasum - We're Nothing But Pawns.flac" WAVE
  TRACK 17 AUDIO
    TITLE "We're Nothing But Pawns"
    PERFORMER "Nasum"
    INDEX 01 00:00:00
FILE "18 Nasum - Defragmentation.flac" WAVE
  TRACK 18 AUDIO
    TITLE "Defragmentation"
    PERFORMER "Nasum"
    INDEX 01 00:00:00
FILE "19 Nasum - Sick System.flac" WAVE
  TRACK 19 AUDIO
    TITLE "Sick System"
    PERFORMER "Nasum"
    INDEX 01 00:00:00
FILE "20 Nasum - The Professional League.flac" WAVE
  TRACK 20 AUDIO
    TITLE "The Professional League"
    PERFORMER "Nasum"
    INDEX 01 00:00:00
FILE "21 Nasum - Old and Tired .flac" WAVE
  TRACK 21 AUDIO
    TITLE "Old and Tired?"
    PERFORMER "Nasum"
    INDEX 01 00:00:00
FILE "22 Nasum - Words to Die For.flac" WAVE
  TRACK 22 AUDIO
    TITLE "Words to Die For"
    PERFORMER "Nasum"
    INDEX 01 00:00:00
FILE "23 Nasum - Riot.flac" WAVE
  TRACK 23 AUDIO
    TITLE "Riot"
    PERFORMER "Nasum"
    INDEX 01 00:00:00
FILE "24 Nasum - The Meaningless Trial.flac" WAVE
  TRACK 24 AUDIO
    TITLE "The Meaningless Trial"
    PERFORMER "Nasum"
    INDEX 01 00:00:00
FILE "25 Nasum - Sometimes Dead is Better.flac" WAVE
  TRACK 25 AUDIO
    TITLE "Sometimes Dead is Better"
    PERFORMER "Nasum"
    INDEX 01 00:00:00
